<svg id="Layer_1" data-name="Layer 1" xmlns="http://www.w3.org/2000/svg" viewBox="0 0 177.95 53.28"><defs><style>.cls-1{fill:#5d4565;}</style></defs><path class="cls-1" d="M16,34.28l2.51-8,.4.06a11.08,11.08,0,0,0,4.83,7.33,16,16,0,0,0,9.58,2.92,15.45,15.45,0,0,0,8.95-2.35,7.16,7.16,0,0,0,3.41-6.15,5.5,5.5,0,0,0-.76-2.89,4.8,4.8,0,0,0-2.1-1.91,29.81,29.81,0,0,0-8-1.77c-1.53-.2-2.7-.36-3.49-.49q-6.88-1.08-10-3.39a7.41,7.41,0,0,1-3.12-6.29q0-5,4.76-8.19T35.5,0a39.71,39.71,0,0,1,7.81.78A33.28,33.28,0,0,1,50.38,3L48.1,9.53l-.56,0a9.15,9.15,0,0,0-4-6.06,14.35,14.35,0,0,0-8.19-2.17,14.1,14.1,0,0,0-8,2.09,6.15,6.15,0,0,0-3.12,5.24,4.84,4.84,0,0,0,.92,2.85,5.82,5.82,0,0,0,2.46,2c1.73.75,5,1.44,9.72,2l3.79.54c3.7.56,6.42,1.57,8.19,3A7.32,7.32,0,0,1,52,25a10.91,10.91,0,0,1-5,9.27q-5,3.57-13.22,3.56A49.83,49.83,0,0,1,24,36.92,33,33,0,0,1,16,34.28Z"/><path class="cls-1" d="M90,33.25A28.31,28.31,0,0,1,82.07,37a33.11,33.11,0,0,1-9.18,1.21q-9.7,0-15.81-5.3A17.46,17.46,0,0,1,51,19.06a16.86,16.86,0,0,1,6.1-13.51Q63.2.39,73,.39a34,34,0,0,1,8.47,1,28,28,0,0,1,7.41,3.07l-2,6.65L86.31,11a13.64,13.64,0,0,0-4.51-7.1A12.58,12.58,0,0,0,74,1.6,13.93,13.93,0,0,0,62.86,6.34q-4.09,4.74-4.1,12.78t4.12,13A13.56,13.56,0,0,0,73.78,37a13.52,13.52,0,0,0,8.75-2.89,13,13,0,0,0,4.61-7.84l.57-.08Z"/><path class="cls-1" d="M75.9,38l0-.32a17,17,0,0,0,4.53-4.34,57,57,0,0,0,5.07-8L98.68,1h.47l13.74,24c.23.37.56.94,1,1.69q5.31,9.33,8.46,10.89V38q-1.7-.09-3.18-.12c-1,0-2,0-2.86,0-2.16,0-4,0-5.4,0s-2.86.06-4.26.12l0-.32a4.76,4.76,0,0,0,2.12-1.11,2.67,2.67,0,0,0,.6-1.88,6.16,6.16,0,0,0-.49-2.09,41,41,0,0,0-1.91-4l-3.64-7.06c-.61,0-1.19-.06-1.77-.08s-1.22,0-1.94,0H93c-1,0-1.73,0-2.26,0s-1,0-1.5.08l-2.08,4.25A48.57,48.57,0,0,0,85,30.54a9.74,9.74,0,0,0-.72,3.1,3.47,3.47,0,0,0,.88,2.45A6.4,6.4,0,0,0,88,37.63V38q-1-.09-2.13-.12c-.77,0-2,0-3.53,0-1.36,0-2.53,0-3.53,0S76.87,37.89,75.9,38ZM90,20.05c.52,0,1.08.07,1.67.08s1.47,0,2.61,0h3.59c1.34,0,2.32,0,2.92,0s1.15,0,1.63-.08L96.17,8.46Z"/><path class="cls-1" d="M125.37,21.57v1.16c0,5.46.35,9.11,1,10.92a6.82,6.82,0,0,0,3.81,4l0,.38-3-.12c-.87,0-1.61,0-2.24,0-1,0-1.94,0-2.93,0L119,38l0-.38a6.8,6.8,0,0,0,3.87-4.13q1.06-2.94,1.07-11.9V9.38a10,10,0,0,0-.81-4.8,5.65,5.65,0,0,0-2.94-2.14V2c.43,0,1.06,0,1.86.06l3.18,0H128l2.21,0q6.7,8.12,23.94,24.36c.22.21.38.37.49.46V18.05q0-9.21-1-11.86a6.71,6.71,0,0,0-3.81-3.85l0-.37,1.64.08c1.8.09,3,.13,3.63.13q1.92,0,5.79-.21H161v.37a6.74,6.74,0,0,0-3.87,4.05q-1.07,2.9-1.07,11.66V38.88h-.51q-5.12-6.1-12.76-14.19T125.37,6.86Z"/><path class="cls-1" d="M0,50.52V42.33H2.52A2.5,2.5,0,0,1,4.33,43,2.2,2.2,0,0,1,5,44.66a2.35,2.35,0,0,1-.35,1.27,2.07,2.07,0,0,1-1,.8A4.87,4.87,0,0,1,2,47H1.14v3.55Zm2.32-7.14H1.14v2.55H2.38a1.51,1.51,0,0,0,1.07-.34,1.21,1.21,0,0,0,.38-1C3.83,43.8,3.32,43.38,2.32,43.38Z"/><path class="cls-1" d="M7,45.13v1.24l0-.1c.5-.83,1-1.25,1.5-1.25a1.82,1.82,0,0,1,1.22.61l-.55.94a1.52,1.52,0,0,0-1-.53,1.06,1.06,0,0,0-.87.5A1.88,1.88,0,0,0,7,47.7v2.82h-1V45.13Z"/><path class="cls-1" d="M14.69,47.92H11a1.73,1.73,0,0,0,.5,1.23,1.66,1.66,0,0,0,1.2.46A3.11,3.11,0,0,0,14.6,49v1a3.64,3.64,0,0,1-.95.47,4,4,0,0,1-1.1.14,2.49,2.49,0,0,1-1.4-.37,2.69,2.69,0,0,1-.85-1A3,3,0,0,1,10,47.8a3,3,0,0,1,.68-2A2.25,2.25,0,0,1,12.41,45a2,2,0,0,1,1.66.75,3,3,0,0,1,.62,2ZM11,47.28h2.64a1.51,1.51,0,0,0-.37-1,1.18,1.18,0,0,0-.89-.35,1.28,1.28,0,0,0-.92.35A1.73,1.73,0,0,0,11,47.28Z"/><path class="cls-1" d="M15.74,53.28V45.13h1.81a3,3,0,0,1,2.16.72,2.55,2.55,0,0,1,.78,2,2.85,2.85,0,0,1-.73,2,2.47,2.47,0,0,1-1.86.77,3.21,3.21,0,0,1-1.11-.22v2.89Zm1.78-7.15h-.73v3.31a2.09,2.09,0,0,0,1,.25A1.52,1.52,0,0,0,19,49.17a1.91,1.91,0,0,0,.46-1.34,1.88,1.88,0,0,0-.22-.93,1.27,1.27,0,0,0-.59-.58A2.52,2.52,0,0,0,17.52,46.13Z"/><path class="cls-1" d="M24.91,47.28v2.29c0,.19.06.28.18.28a1.22,1.22,0,0,0,.59-.28v.64a3.41,3.41,0,0,1-.56.33,1.38,1.38,0,0,1-.45.08.69.69,0,0,1-.78-.54,2.23,2.23,0,0,1-1.41.53,1.22,1.22,0,0,1-.91-.38,1.27,1.27,0,0,1-.36-.93,1.3,1.3,0,0,1,.35-.91,2.41,2.41,0,0,1,1-.64l1.32-.47V47A.85.85,0,0,0,23,46a2.24,2.24,0,0,0-1.65.9V45.75A2.14,2.14,0,0,1,23,45a1.93,1.93,0,0,1,1.36.46,1.37,1.37,0,0,1,.31.39,1.3,1.3,0,0,1,.17.49A6.28,6.28,0,0,1,24.91,47.28Zm-1,2.18v-1.6l-.69.27a2.27,2.27,0,0,0-.74.44.74.74,0,0,0-.22.55.77.77,0,0,0,.2.54.73.73,0,0,0,.54.21A1.29,1.29,0,0,0,23.89,49.46Z"/><path class="cls-1" d="M27.7,45.13v1.24l.06-.1c.5-.83,1-1.25,1.5-1.25a1.82,1.82,0,0,1,1.22.61l-.55.94a1.52,1.52,0,0,0-1-.53,1.06,1.06,0,0,0-.87.5,1.89,1.89,0,0,0-.37,1.16v2.82h-1V45.13Z"/><path class="cls-1" d="M31.73,42.86a.61.61,0,0,1,.44.19.6.6,0,0,1,.18.44.64.64,0,0,1-.18.45.6.6,0,0,1-.44.18.54.54,0,0,1-.41-.19.58.58,0,0,1-.19-.44.57.57,0,0,1,.19-.43A.56.56,0,0,1,31.73,42.86Zm-.5,2.27h1v5.39h-1Z"/><path class="cls-1" d="M34.79,45.13v.68A2,2,0,0,1,36.36,45a1.72,1.72,0,0,1,.91.26,1.66,1.66,0,0,1,.64.72,3.43,3.43,0,0,1,.22,1.44v3.08h-1V47.45a2.07,2.07,0,0,0-.25-1.18.91.91,0,0,0-.82-.36,1.48,1.48,0,0,0-1.24.76v3.85H33.73V45.13Z"/><path class="cls-1" d="M39.31,47a1.68,1.68,0,0,1,.61-1.37,2.58,2.58,0,0,1,1.67-.5h2.15V46H42.69a2.31,2.31,0,0,1,.42.58,1.48,1.48,0,0,1,.12.61A1.74,1.74,0,0,1,43,48a1.79,1.79,0,0,1-.6.62,3.64,3.64,0,0,1-1.2.34c-.4.06-.59.2-.59.42a.34.34,0,0,0,.22.31,3.49,3.49,0,0,0,.79.25,8.41,8.41,0,0,1,1.24.34,1.68,1.68,0,0,1,.5.35,1.34,1.34,0,0,1,.37,1,1.41,1.41,0,0,1-.66,1.22,3,3,0,0,1-1.77.46,3.09,3.09,0,0,1-1.79-.46,1.43,1.43,0,0,1-.67-1.24c0-.73.44-1.2,1.31-1.41-.34-.23-.52-.46-.52-.69a.64.64,0,0,1,.23-.47,1.42,1.42,0,0,1,.6-.31A1.76,1.76,0,0,1,39.31,47ZM41,50.78a1.51,1.51,0,0,0-.86.23.69.69,0,0,0-.33.59c0,.55.48.83,1.45.83a2.23,2.23,0,0,0,1.07-.21.66.66,0,0,0,.38-.59c0-.25-.16-.45-.48-.61A2.75,2.75,0,0,0,41,50.78Zm.24-4.72a1,1,0,0,0-.71.29,1,1,0,0,0-.3.7.91.91,0,0,0,.29.69,1,1,0,0,0,.73.27,1,1,0,0,0,.73-.27,1,1,0,0,0,0-1.4A1,1,0,0,0,41.25,46.06Z"/><path class="cls-1" d="M47.71,53.28V45.13h1.81a3,3,0,0,1,2.16.72,2.55,2.55,0,0,1,.78,2,2.8,2.8,0,0,1-.73,2,2.47,2.47,0,0,1-1.86.77,3.25,3.25,0,0,1-1.11-.22v2.89Zm1.78-7.15h-.73v3.31a2.09,2.09,0,0,0,1,.25A1.5,1.5,0,0,0,51,49.17a1.91,1.91,0,0,0,.46-1.34,1.88,1.88,0,0,0-.22-.93,1.27,1.27,0,0,0-.59-.58A2.49,2.49,0,0,0,49.49,46.13Z"/><path class="cls-1" d="M56.88,47.28v2.29c0,.19.06.28.18.28a1.19,1.19,0,0,0,.59-.28v.64a3.41,3.41,0,0,1-.56.33,1.33,1.33,0,0,1-.45.08.69.69,0,0,1-.78-.54,2.23,2.23,0,0,1-1.41.53,1.22,1.22,0,0,1-.91-.38,1.27,1.27,0,0,1-.36-.93,1.35,1.35,0,0,1,.35-.91,2.41,2.41,0,0,1,1-.64l1.32-.47V47a.85.85,0,0,0-.94-1,2.27,2.27,0,0,0-1.65.9V45.75A2.14,2.14,0,0,1,55,45a1.93,1.93,0,0,1,1.36.46,1.37,1.37,0,0,1,.31.39,1.3,1.3,0,0,1,.17.49A6.28,6.28,0,0,1,56.88,47.28Zm-1,2.18v-1.6l-.69.27a2.27,2.27,0,0,0-.74.44.74.74,0,0,0-.22.55.73.73,0,0,0,.21.54.69.69,0,0,0,.53.21A1.29,1.29,0,0,0,55.86,49.46Z"/><path class="cls-1" d="M59.68,45.13v1.24l0-.1c.5-.83,1-1.25,1.5-1.25a1.8,1.8,0,0,1,1.22.61l-.55.94a1.5,1.5,0,0,0-1-.53,1.07,1.07,0,0,0-.87.5,1.88,1.88,0,0,0-.36,1.16v2.82h-1V45.13Z"/><path class="cls-1" d="M67.4,47.92H63.72a1.73,1.73,0,0,0,.5,1.23,1.66,1.66,0,0,0,1.2.46A3.11,3.11,0,0,0,67.31,49v1a3.5,3.5,0,0,1-1,.47,4,4,0,0,1-1.1.14,2.49,2.49,0,0,1-1.4-.37,2.69,2.69,0,0,1-.85-1,3,3,0,0,1-.32-1.44,3,3,0,0,1,.67-2A2.25,2.25,0,0,1,65.12,45a2,2,0,0,1,1.66.75,3,3,0,0,1,.62,2Zm-3.66-.64h2.64a1.51,1.51,0,0,0-.37-1,1.18,1.18,0,0,0-.89-.35,1.24,1.24,0,0,0-.91.35A1.68,1.68,0,0,0,63.74,47.28Z"/><path class="cls-1" d="M69.55,45.13v.68A2,2,0,0,1,71.13,45a1.77,1.77,0,0,1,.91.26,1.72,1.72,0,0,1,.64.72,3.63,3.63,0,0,1,.21,1.44v3.08h-1V47.45a2.17,2.17,0,0,0-.24-1.18.93.93,0,0,0-.82-.36,1.48,1.48,0,0,0-1.25.76v3.85h-1V45.13Z"/><path class="cls-1" d="M73.6,46l1.94-2v1.12h1.67v1H75.54v2.64c0,.62.25.92.75.92a2.28,2.28,0,0,0,1.18-.37v1a2.55,2.55,0,0,1-1.3.34A1.73,1.73,0,0,1,75,50.19a1.32,1.32,0,0,1-.24-.29,1.36,1.36,0,0,1-.16-.42,4.45,4.45,0,0,1-.07-1V46.09H73.6Z"/><path class="cls-1" d="M78,50.13V49a5.42,5.42,0,0,0,.89.52,2,2,0,0,0,.77.19,1,1,0,0,0,.56-.16.48.48,0,0,0,.23-.39.53.53,0,0,0-.15-.39,3.05,3.05,0,0,0-.65-.45,4.61,4.61,0,0,1-1.31-1,1.42,1.42,0,0,1-.31-.89,1.29,1.29,0,0,1,.47-1,1.8,1.8,0,0,1,1.2-.39,3.22,3.22,0,0,1,1.58.45v1.05a3.07,3.07,0,0,0-1.5-.57.89.89,0,0,0-.49.13.42.42,0,0,0-.18.35.51.51,0,0,0,.16.36,3,3,0,0,0,.59.41l.37.21c.87.51,1.31,1.07,1.31,1.69A1.36,1.36,0,0,1,81,50.19a1.93,1.93,0,0,1-1.29.42,3,3,0,0,1-.83-.1A5,5,0,0,1,78,50.13Z"/><path class="cls-1" d="M83.23,49.22a.64.64,0,0,1,.49.2.71.71,0,0,1,0,1,.71.71,0,0,1-.5.19.67.67,0,0,1-.69-.68.69.69,0,0,1,.2-.51A.63.63,0,0,1,83.23,49.22Z"/><path class="cls-1" d="M87.39,50.52V42.33h2.52a2.5,2.5,0,0,1,1.81.64,2.16,2.16,0,0,1,.68,1.69,2.27,2.27,0,0,1-.35,1.27,2,2,0,0,1-1,.8,4.81,4.81,0,0,1-1.72.24h-.85v3.55Zm2.32-7.14H88.53v2.55h1.25a1.53,1.53,0,0,0,1.07-.34,1.21,1.21,0,0,0,.37-1C91.22,43.8,90.72,43.38,89.71,43.38Z"/><path class="cls-1" d="M94.36,45.13v1.24l0-.1c.5-.83,1-1.25,1.5-1.25a1.8,1.8,0,0,1,1.22.61l-.54.94a1.52,1.52,0,0,0-1-.53,1.09,1.09,0,0,0-.87.5,1.88,1.88,0,0,0-.36,1.16v2.82h-1V45.13Z"/><path class="cls-1" d="M100.07,45.11a2.72,2.72,0,0,1,2.77,2.8,2.58,2.58,0,0,1-.8,1.93,2.77,2.77,0,0,1-2,.77,2.71,2.71,0,0,1-2-.78,2.65,2.65,0,0,1-.79-1.95,2.69,2.69,0,0,1,.8-2A2.76,2.76,0,0,1,100.07,45.11Zm-.06,1a1.57,1.57,0,0,0-1.22.5,1.78,1.78,0,0,0-.48,1.28,1.66,1.66,0,0,0,1.74,1.75,1.66,1.66,0,0,0,1.25-.49,1.75,1.75,0,0,0,.49-1.27A1.73,1.73,0,0,0,100,46.08Z"/><path class="cls-1" d="M103.26,46l1.93-2v1.12h1.67v1h-1.67v2.64c0,.62.25.92.75.92a2.26,2.26,0,0,0,1.18-.37v1a2.52,2.52,0,0,1-1.3.34,1.71,1.71,0,0,1-1.18-.42,1.13,1.13,0,0,1-.25-.29,1.68,1.68,0,0,1-.16-.42,4.45,4.45,0,0,1-.07-1V46.09h-.9Z"/><path class="cls-1" d="M112.33,47.92h-3.69a1.78,1.78,0,0,0,.5,1.23,1.66,1.66,0,0,0,1.2.46,3.07,3.07,0,0,0,1.89-.65v1a3.45,3.45,0,0,1-.94.47,4,4,0,0,1-1.1.14,2.44,2.44,0,0,1-1.4-.37,2.71,2.71,0,0,1-.86-1,3.15,3.15,0,0,1-.32-1.44,2.92,2.92,0,0,1,.68-2,2.23,2.23,0,0,1,1.76-.77,2.06,2.06,0,0,1,1.66.75,3.07,3.07,0,0,1,.62,2Zm-3.67-.64h2.64a1.46,1.46,0,0,0-.37-1A1.17,1.17,0,0,0,110,46a1.26,1.26,0,0,0-.91.35A1.74,1.74,0,0,0,108.66,47.28Z"/><path class="cls-1" d="M117.36,49.26v1.06a4.17,4.17,0,0,1-1.52.29,2.61,2.61,0,0,1-2-.75,2.79,2.79,0,0,1-.73-2,3,3,0,0,1,.71-2.05,2.43,2.43,0,0,1,1.88-.78,3.17,3.17,0,0,1,.72.08,3.84,3.84,0,0,1,.79.3v1.13A2.68,2.68,0,0,0,115.8,46a1.46,1.46,0,0,0-1.15.51,1.86,1.86,0,0,0-.45,1.29,1.74,1.74,0,0,0,.49,1.31,1.77,1.77,0,0,0,1.3.48A3.26,3.26,0,0,0,117.36,49.26Z"/><path class="cls-1" d="M117.81,46l1.93-2v1.12h1.67v1h-1.67v2.64c0,.62.25.92.75.92a2.28,2.28,0,0,0,1.18-.37v1a2.55,2.55,0,0,1-1.3.34,1.71,1.71,0,0,1-1.18-.42,1.13,1.13,0,0,1-.25-.29,1.68,1.68,0,0,1-.16-.42,4.45,4.45,0,0,1-.07-1V46.09h-.9Z"/><path class="cls-1" d="M123,42.86a.59.59,0,0,1,.43.19.61.61,0,0,1,.19.44.65.65,0,0,1-.19.45.58.58,0,0,1-.43.18.55.55,0,0,1-.42-.19.6.6,0,0,1-.18-.44.6.6,0,0,1,.18-.43A.56.56,0,0,1,123,42.86Zm-.51,2.27h1v5.39h-1Z"/><path class="cls-1" d="M126,45.13v.68a2,2,0,0,1,1.57-.79,1.72,1.72,0,0,1,.91.26,1.6,1.6,0,0,1,.64.72,3.43,3.43,0,0,1,.22,1.44v3.08h-1V47.45a2.17,2.17,0,0,0-.24-1.18.93.93,0,0,0-.82-.36,1.48,1.48,0,0,0-1.25.76v3.85h-1.06V45.13Z"/><path class="cls-1" d="M130.52,47a1.7,1.7,0,0,1,.61-1.37,2.6,2.6,0,0,1,1.67-.5H135V46h-1a2.38,2.38,0,0,1,.43.58,1.66,1.66,0,0,1,.11.61,1.75,1.75,0,0,1-.83,1.45,3.5,3.5,0,0,1-1.2.34c-.39.06-.59.2-.59.42a.34.34,0,0,0,.22.31,3.49,3.49,0,0,0,.79.25,8,8,0,0,1,1.24.34,1.68,1.68,0,0,1,.5.35,1.34,1.34,0,0,1,.37,1,1.41,1.41,0,0,1-.66,1.22,3,3,0,0,1-1.77.46,3.09,3.09,0,0,1-1.79-.46,1.45,1.45,0,0,1-.67-1.24q0-1.09,1.32-1.41c-.35-.23-.53-.46-.53-.69a.64.64,0,0,1,.23-.47,1.42,1.42,0,0,1,.6-.31A1.78,1.78,0,0,1,130.52,47Zm1.7,3.78a1.51,1.51,0,0,0-.86.23.69.69,0,0,0-.33.59c0,.55.49.83,1.46.83a2.21,2.21,0,0,0,1.06-.21.66.66,0,0,0,.38-.59c0-.25-.16-.45-.48-.61A2.75,2.75,0,0,0,132.22,50.78Zm.24-4.72a1,1,0,0,0-.71.29,1,1,0,0,0-.3.7.91.91,0,0,0,.29.69,1.14,1.14,0,0,0,1.47,0,1,1,0,0,0,.29-.7.92.92,0,0,0-.3-.7A1,1,0,0,0,132.46,46.06Z"/><path class="cls-1" d="M142.91,49.26v1.06a4.17,4.17,0,0,1-1.52.29,2.61,2.61,0,0,1-2-.75,2.74,2.74,0,0,1-.73-2,3,3,0,0,1,.71-2.05,2.42,2.42,0,0,1,1.87-.78,3.2,3.2,0,0,1,.73.08,4.06,4.06,0,0,1,.79.3v1.13a2.71,2.71,0,0,0-1.45-.51,1.46,1.46,0,0,0-1.15.51,1.86,1.86,0,0,0-.45,1.29,1.66,1.66,0,0,0,1.79,1.79A3.26,3.26,0,0,0,142.91,49.26Z"/><path class="cls-1" d="M144.07,42.33h1v3.51a2,2,0,0,1,1.61-.82,1.69,1.69,0,0,1,.94.27,1.62,1.62,0,0,1,.61.75,3.63,3.63,0,0,1,.2,1.41v3.07h-1V47.19a1.5,1.5,0,0,0-.28-1,.89.89,0,0,0-.74-.36,1.28,1.28,0,0,0-.65.18,3.22,3.22,0,0,0-.66.61v3.86h-1Z"/><path class="cls-1" d="M150.44,42.86a.61.61,0,0,1,.44.19.6.6,0,0,1,.18.44.64.64,0,0,1-.18.45.6.6,0,0,1-.44.18.55.55,0,0,1-.42-.19.6.6,0,0,1-.18-.44.6.6,0,0,1,.18-.43A.56.56,0,0,1,150.44,42.86Zm-.51,2.27h1v5.39h-1Z"/><path class="cls-1" d="M152.48,42.33h1v8.19h-1Z"/><path class="cls-1" d="M158.5,42.33h1v8.19h-2.21a2.38,2.38,0,0,1-1.85-.75,2.9,2.9,0,0,1-.69-2,2.74,2.74,0,0,1,.72-2,2.44,2.44,0,0,1,1.85-.77,3.15,3.15,0,0,1,1.14.24Zm0,7.28V46.19a2.19,2.19,0,0,0-1-.25,1.59,1.59,0,0,0-1.23.52,2.1,2.1,0,0,0-.46,1.41,1.9,1.9,0,0,0,.4,1.28,1.2,1.2,0,0,0,.51.36,3,3,0,0,0,1,.1Z"/><path class="cls-1" d="M162.06,45.13v1.24l.05-.1c.5-.83,1-1.25,1.5-1.25a1.8,1.8,0,0,1,1.22.61l-.54.94a1.54,1.54,0,0,0-1-.53,1.07,1.07,0,0,0-.87.5,1.88,1.88,0,0,0-.36,1.16v2.82h-1V45.13Z"/><path class="cls-1" d="M169.78,47.92H166.1a1.73,1.73,0,0,0,.5,1.23,1.66,1.66,0,0,0,1.2.46,3.11,3.11,0,0,0,1.89-.65v1a3.5,3.5,0,0,1-.95.47,4,4,0,0,1-1.1.14,2.49,2.49,0,0,1-1.4-.37,2.69,2.69,0,0,1-.85-1,3,3,0,0,1-.32-1.44,3,3,0,0,1,.67-2A2.25,2.25,0,0,1,167.5,45a2,2,0,0,1,1.66.75,3,3,0,0,1,.62,2Zm-3.66-.64h2.64a1.51,1.51,0,0,0-.37-1,1.18,1.18,0,0,0-.89-.35,1.28,1.28,0,0,0-.92.35A1.73,1.73,0,0,0,166.12,47.28Z"/><path class="cls-1" d="M171.93,45.13v.68A2,2,0,0,1,173.5,45a1.72,1.72,0,0,1,.91.26,1.66,1.66,0,0,1,.64.72,3.43,3.43,0,0,1,.22,1.44v3.08h-1V47.45a2.17,2.17,0,0,0-.24-1.18.93.93,0,0,0-.82-.36,1.48,1.48,0,0,0-1.25.76v3.85h-1.06V45.13Z"/><path class="cls-1" d="M177.25,49.22a.66.66,0,0,1,.5.2.73.73,0,0,1,.2.51.66.66,0,0,1-.2.49.68.68,0,0,1-.5.19.67.67,0,0,1-.49-.19.7.7,0,0,1-.2-.49.73.73,0,0,1,.2-.51A.64.64,0,0,1,177.25,49.22Z"/></svg>